<svg xmlns="http://www.w3.org/2000/svg" width="24" height="24" viewBox="0 0 24 24" fill="none" stroke="currentColor" stroke-width="2" stroke-linecap="round" stroke-linejoin="round"><circle cx="9" cy="12" r="1.5"/><circle cx="15" cy="12" r="1.5"/><path d="M7.5 7.5C9 7 10.5 6.5 12 6.5s3 .5 4.5 1M7.5 16.5C9 17 10.5 17.5 12 17.5s3-.5 4.5-1"/><path d="M20.317 4.37a19.791 19.791 0 0 0-4.885-1.515 14.45 14.45 0 0 0-.617 1.25 18.27 18.27 0 0 0-5.487 0 12.64 12.64 0 0 0-.617-1.25A19.736 19.736 0 0 0 3.677 4.37C.533 9.046-.32 13.58.099 18.057a19.876 19.876 0 0 0 5.993 3.03 15.185 15.185 0 0 0 1.226-1.994 13.107 13.107 0 0 1-1.872-.892 10.2 10.2 0 0 0 .372-.292c3.928 1.793 8.18 1.793 12.062 0 .12.098.246.198.373.292a12.299 12.299 0 0 1-1.873.892 15.25 15.25 0 0 0 1.225 1.993 19.839 19.839 0 0 0 6.002-3.03c.5-5.177-.838-9.674-3.549-13.66z"/></svg>